<svg width="7" height="12" viewBox="0 0 7 12" fill="none" xmlns="http://www.w3.org/2000/svg">
<path d="M2.79251 5.97785L6.33251 2.43785C6.51876 2.25049 6.6233 1.99704 6.6233 1.73285C6.6233 1.46867 6.51876 1.21522 6.33251 1.02785C6.23954 0.934126 6.12894 0.859731 6.00708 0.808962C5.88522 0.758194 5.75452 0.732056 5.62251 0.732056C5.4905 0.732056 5.35979 0.758194 5.23793 0.808962C5.11607 0.859731 5.00547 0.934126 4.91251 1.02785L0.672507 5.26785C0.578779 5.36082 0.504385 5.47142 0.453616 5.59328C0.402847 5.71514 0.376709 5.84584 0.376709 5.97785C0.376709 6.10987 0.402847 6.24057 0.453616 6.36243C0.504385 6.48429 0.578779 6.59489 0.672507 6.68785L4.91251 10.9779C5.00595 11.0705 5.11676 11.1439 5.2386 11.1936C5.36044 11.2434 5.4909 11.2686 5.62251 11.2679C5.75411 11.2686 5.88458 11.2434 6.00641 11.1936C6.12825 11.1439 6.23907 11.0705 6.33251 10.9779C6.51876 10.7905 6.6233 10.537 6.6233 10.2729C6.6233 10.0087 6.51876 9.75522 6.33251 9.56785L2.79251 5.97785Z" fill="white"/>
</svg>
